# xmcd CD database file
#
# Track frame offsets:
#	150
#	11939
#	24126
#	39634
#	52981
#	70380
#	90962
#	108836
#	124980
#	143431
#	158015
#	170434
#
# Disc length: 2425 seconds
#
# Revision: 0
# Processed by: cddbd v1.4PL0 Copyright (c) Steve Scherf et al.
# Submitted via: CDex 1.50
#
DISCID=8e09770c
DTITLE=Travis Linville and The Burtschi Brothers - Uncertain Texas
DYEAR=2000
DGENRE=Country
TTITLE0=Tulsa
TTITLE1=Between the Bottle and Her
TTITLE2=Soft Place to Fall
TTITLE3=Freedom's Just a Word
TTITLE4=Few More Miles to Mexico
TTITLE5=Low Down Livin'
TTITLE6=Go Easy on Me
TTITLE7=Ridin' the Road
TTITLE8=By My Side
TTITLE9=2009
TTITLE10=Uncertain Texas
TTITLE11=Without a Trace
EXTD=YEAR: 2000
EXTT0=
EXTT1=
EXTT2=
EXTT3=
EXTT4=
EXTT5=
EXTT6=
EXTT7=
EXTT8=
EXTT9=
EXTT10=
EXTT11=
PLAYORDER=
